<svg version="1.1" id="Layer_1" xmlns="http://www.w3.org/2000/svg" xmlns:xlink="http://www.w3.org/1999/xlink" x="0px" y="0px"
	 width="100%" viewBox="0 0 496 496" enable-background="new 0 0 496 496" xml:space="preserve">
<path fill="#000000" opacity="1.000000" stroke="none" 
	d="
M331.904114,193.736298 
	C329.349701,185.744019 329.743378,177.888168 329.751068,170.061905 
	C329.759613,161.396820 329.924957,152.725662 329.660950,144.068146 
	C329.328705,133.172653 324.168671,128.313828 313.392456,128.293259 
	C299.393951,128.266556 285.395294,128.258942 271.396881,128.297729 
	C262.073730,128.323563 258.345184,131.999619 258.336975,141.329666 
	C258.295166,188.824631 258.306274,236.319641 258.287964,283.814636 
	C258.283600,295.223145 253.304764,300.230865 241.726761,300.121490 
	C221.734802,299.932617 201.742752,299.661835 181.753830,299.269043 
	C167.693069,298.992737 159.374573,292.057190 156.501312,278.333801 
	C155.268921,272.447693 155.200653,266.422760 155.400131,260.433319 
	C155.721909,250.771194 156.159714,241.119446 154.732727,231.498779 
	C153.284409,221.734390 149.385284,217.446228 139.888916,215.116379 
	C137.306793,214.482895 134.705002,213.795456 132.480392,212.225067 
	C130.588150,210.889297 129.499329,209.134125 129.744537,206.705963 
	C130.001389,204.162369 131.692917,202.973450 133.877274,202.253601 
	C134.664764,201.994110 135.486694,201.836731 136.296188,201.646729 
	C149.918686,198.449341 154.426498,192.588501 154.713348,178.464920 
	C154.976822,165.491211 153.772507,152.488083 155.650726,139.542145 
	C157.939270,123.768166 166.548294,116.106682 182.569733,115.697037 
	C187.389877,115.573792 192.204285,115.931786 197.036758,115.320442 
	C206.529816,114.119499 213.259369,108.058258 220.390518,102.615608 
	C221.941055,101.432205 223.221817,99.735504 225.803802,99.452194 
	C228.917999,103.575020 228.551132,107.930840 226.238373,112.293594 
	C223.967621,116.577065 220.262390,119.318359 215.962830,121.430183 
	C206.798218,125.931580 196.868942,127.057999 186.939209,128.185928 
	C178.370193,129.159302 174.153595,133.352188 173.099014,141.850922 
	C171.903137,151.488297 172.514282,161.159866 172.390289,170.815628 
	C172.317307,176.498642 171.870270,182.118744 170.749298,187.687149 
	C169.055557,196.100754 164.660690,202.340027 156.468521,205.589249 
	C155.617798,205.926666 154.445404,206.080276 154.263245,207.357529 
	C154.467789,207.612976 154.628006,208.029678 154.870483,208.084854 
	C168.402252,211.163818 171.868607,221.297455 172.160843,233.294724 
	C172.440750,244.786240 172.232025,256.290253 172.191681,267.788635 
	C172.179291,271.319031 172.577362,274.779907 173.687408,278.125122 
	C175.580551,283.830292 179.602661,286.826996 185.629700,286.851654 
	C200.461243,286.912323 215.293533,286.943939 230.124756,286.857300 
	C237.382797,286.814911 241.906387,282.473389 242.501602,275.208527 
	C242.691559,272.889954 242.578018,270.545227 242.576309,268.212463 
	C242.544754,224.884262 242.511978,181.556076 242.469040,138.227875 
	C242.465576,134.737000 242.126328,131.225540 242.401260,127.759995 
	C242.857956,122.003159 245.287552,119.431633 250.886795,118.245621 
	C252.341019,117.937576 253.859299,117.841385 255.351105,117.815178 
	C275.175110,117.466927 294.999420,117.133369 314.824280,116.839729 
	C317.652496,116.797844 320.504486,116.796524 323.310822,117.098289 
	C338.635040,118.746124 344.646912,124.945801 346.264587,140.354355 
	C347.085083,148.169388 347.201477,155.952209 346.532104,163.794952 
	C345.863983,171.622589 346.490692,179.447281 348.196259,187.118622 
	C349.621826,193.530457 353.740051,197.567001 360.059845,199.398209 
	C362.935913,200.231598 365.836426,201.040146 368.610199,202.149261 
	C371.133087,203.158020 372.565613,205.134201 372.314301,208.035614 
	C372.056305,211.014679 370.059235,212.306519 367.482300,213.036270 
	C367.163208,213.126648 366.827942,213.159012 366.501129,213.222946 
	C352.499176,215.961761 347.535248,221.829193 347.373260,236.118988 
	C347.256165,246.450043 347.380157,256.783875 347.255249,267.114746 
	C347.219238,270.094513 346.859131,273.096161 346.365570,276.040497 
	C342.955109,296.385651 328.466278,301.562592 310.431488,298.193573 
	C309.146271,297.953461 307.874908,297.389160 306.720886,296.751556 
	C304.664429,295.615295 303.460632,293.861755 303.895508,291.404968 
	C304.308716,289.070557 306.116882,288.192139 308.192200,287.845337 
	C309.830414,287.571564 311.513306,287.575195 313.160339,287.342194 
	C324.642700,285.717896 329.247772,280.788879 329.586334,269.170380 
	C329.843506,260.345032 329.746918,251.506332 329.656403,242.675125 
	C329.609924,238.141373 330.312378,233.709656 331.004181,229.273697 
	C332.624695,218.881927 337.869965,211.359695 349.949066,207.817276 
	C341.147797,205.325562 334.633820,201.998474 331.904114,193.736298 
z"/>
<path fill="#000000" opacity="1.000000" stroke="none" 
	d="
M299.568207,380.716309 
	C292.449585,381.571381 289.814178,384.253693 290.631195,389.637787 
	C291.017426,392.183228 291.874268,394.787720 294.666016,395.426849 
	C298.555603,396.317261 302.670044,396.954010 306.128143,394.130676 
	C309.887512,391.061432 310.390991,383.915039 307.378296,380.006439 
	C305.686981,377.812225 305.786652,375.289551 306.600372,372.875000 
	C307.442749,370.375275 309.809814,370.935394 311.727875,370.893707 
	C315.054962,370.821411 318.385437,370.921814 321.713776,370.885254 
	C324.299103,370.856842 325.901001,371.899445 325.915955,374.635773 
	C325.929230,377.062988 326.597595,380.108124 323.073517,380.592255 
	C319.397400,381.097321 319.323883,383.399475 319.111786,386.271973 
	C317.985504,401.523804 304.777832,410.184723 291.350128,404.611725 
	C281.911621,400.694397 278.170807,389.826141 283.125793,379.828796 
	C284.553162,376.948944 284.922699,374.869781 283.450623,371.671875 
	C278.011749,359.856415 285.613617,348.232574 298.601715,347.895050 
	C300.431305,347.847504 302.269623,347.992249 304.092957,347.876282 
	C307.820038,347.639252 310.071014,348.599213 310.080322,353.032288 
	C310.089783,357.537476 307.705109,358.347412 304.042175,358.131226 
	C302.383423,358.033325 300.710999,358.177673 299.050385,358.097168 
	C294.870056,357.894501 291.747101,359.049530 291.454773,363.882294 
	C291.187012,368.308563 293.198212,370.336243 298.444763,370.834808 
	C300.528412,371.032867 302.703339,371.155273 302.863739,373.801788 
	C303.024353,376.451996 304.138947,379.726929 299.568207,380.716309 
z"/>
<path fill="#000000" opacity="1.000000" stroke="none" 
	d="
M455.754730,402.916809 
	C442.198975,410.662445 429.666626,403.948669 429.100647,388.814728 
	C428.789581,380.497192 428.771057,372.143646 429.154816,363.831024 
	C429.749939,350.940826 440.525635,343.946320 452.145905,348.546570 
	C458.917053,351.227142 461.699280,356.677155 461.916718,363.459839 
	C462.194122,372.114166 462.096985,380.785553 461.956146,389.446289 
	C461.872040,394.617157 460.294373,399.287842 455.754730,402.916809 
M445.507477,395.988190 
	C449.910706,396.260162 451.956055,394.124634 451.945251,389.780975 
	C451.923370,380.981873 451.920929,372.182587 451.953033,363.383545 
	C451.969177,358.957916 449.738312,357.252625 445.426300,357.188965 
	C440.868378,357.121704 439.101807,359.358490 439.099304,363.554840 
	C439.094025,372.353943 439.121033,381.153107 439.109589,389.952179 
	C439.104736,393.701691 440.602295,396.007507 445.507477,395.988190 
z"/>
<path fill="#000000" opacity="1.000000" stroke="none" 
	d="
M146.745056,387.998230 
	C146.751053,376.193115 146.906326,364.884827 146.689346,353.583679 
	C146.605545,349.218689 148.165543,347.530670 152.485199,347.825439 
	C156.126633,348.073914 159.805527,347.742889 163.452698,347.943695 
	C173.027832,348.470917 179.135986,354.839081 179.238327,364.385101 
	C179.325653,372.530731 179.332809,380.678925 179.237564,388.824371 
	C179.117264,399.111420 172.974335,405.179626 162.689117,405.354919 
	C146.770294,405.626251 146.770294,405.626251 146.747925,389.994293 
	C146.747208,389.495514 146.746429,388.996735 146.745056,387.998230 
M168.615601,392.911621 
	C168.957809,391.636627 169.583237,390.364502 169.596268,389.086121 
	C169.681061,380.769775 169.726654,372.450531 169.593460,364.135315 
	C169.511642,359.027771 166.124634,357.905975 161.738831,358.118042 
	C159.036926,358.248688 156.237869,357.814819 156.274384,361.949799 
	C156.362534,371.930481 156.314148,381.912262 156.331818,391.893616 
	C156.334961,393.664825 156.637405,395.441132 158.836777,395.512939 
	C162.074234,395.618622 165.565948,396.605164 168.615601,392.911621 
z"/>
<path fill="#000000" opacity="1.000000" stroke="none" 
	d="
M113.737793,347.895569 
	C121.935814,350.705994 125.299431,356.410400 125.269958,364.447418 
	C125.239433,372.769958 125.318954,381.093292 125.235573,389.415131 
	C125.132553,399.697266 118.611038,406.312988 108.819344,406.217926 
	C99.156563,406.124084 92.839890,399.681030 92.726646,389.618561 
	C92.632996,381.296997 92.678436,372.973328 92.716370,364.650879 
	C92.773399,352.139832 100.991707,345.443451 113.737793,347.895569 
M106.067940,395.774628 
	C114.070282,396.296600 115.635414,394.909882 115.660378,387.131592 
	C115.684929,379.483124 115.681259,371.834290 115.632408,364.185944 
	C115.605392,359.955566 114.051437,357.153992 109.185768,357.230377 
	C104.313148,357.306915 102.412590,358.961945 102.332794,364.272583 
	C102.205414,372.750305 102.297386,381.231628 102.334106,389.711273 
	C102.344536,392.120026 102.769791,394.384369 106.067940,395.774628 
z"/>
<path fill="#000000" opacity="1.000000" stroke="none" 
	d="
M210.467194,368.419312 
	C213.256973,372.669739 217.250381,370.628387 220.616547,370.720520 
	C224.822464,370.835663 227.434067,371.648956 226.977631,376.569122 
	C226.741409,379.115295 225.802124,380.677246 223.118240,380.806000 
	C221.954803,380.861816 220.784805,380.918152 219.623520,380.860016 
	C210.305206,380.393341 210.602188,380.396759 210.246567,389.361450 
	C210.040634,394.552155 211.865723,396.352966 216.833054,395.715424 
	C218.800186,395.462891 220.837067,395.804810 222.824966,395.652039 
	C226.511765,395.368713 228.338608,396.555145 228.301163,400.657837 
	C228.265701,404.544373 226.511108,405.483063 223.064392,405.391571 
	C217.069153,405.232422 211.066147,405.283020 205.067810,405.358154 
	C202.132065,405.394897 200.820816,404.145050 200.826797,401.191620 
	C200.859955,384.860077 200.856064,368.528351 200.809280,352.196869 
	C200.800980,349.300751 201.990234,347.868652 204.954453,347.888397 
	C211.286697,347.930603 217.619858,347.947998 223.951767,347.884949 
	C227.214600,347.852478 228.333466,349.463257 228.247849,352.552063 
	C228.168716,355.406006 228.114975,358.051025 224.254684,358.080292 
	C222.921783,358.090393 221.589111,358.132294 220.256210,358.144714 
	C209.563095,358.244415 210.271820,356.631561 210.467194,368.419312 
z"/>
<path fill="#000000" opacity="1.000000" stroke="none" 
	d="
M49.337616,365.454163 
	C49.340557,373.404968 49.271412,380.904175 49.387535,388.400482 
	C49.448074,392.308502 50.292999,395.749023 55.334152,395.977478 
	C60.678680,396.219696 62.085335,395.274689 62.714104,389.195099 
	C63.143063,385.047485 65.885391,385.724823 68.486618,385.603424 
	C71.640831,385.456268 72.357918,387.222412 72.405159,389.995544 
	C72.555733,398.833252 66.525780,405.440063 57.442158,406.181458 
	C48.488235,406.912292 40.503250,400.886780 40.033066,392.051331 
	C39.493805,381.917847 39.497437,371.712585 40.024853,361.578064 
	C40.489239,352.654755 48.448612,346.459778 57.261868,347.171631 
	C66.365242,347.906891 72.399918,354.413391 72.388611,363.261963 
	C72.384842,366.210510 71.676140,368.114197 68.283607,368.102386 
	C65.410011,368.092377 62.832989,367.947510 62.771423,364.091370 
	C62.697609,359.467926 60.601521,357.039246 55.656204,357.203278 
	C50.342373,357.379578 49.559483,360.879517 49.337616,365.454163 
z"/>
<path fill="#000000" opacity="1.000000" stroke="none" 
	d="
M397.731689,347.910095 
	C405.513000,351.242004 409.329285,356.707672 409.177948,363.564575 
	C409.116516,366.347931 408.170837,368.039215 405.166687,368.067993 
	C402.442932,368.094086 399.701050,368.362122 399.504974,364.340485 
	C399.298096,360.097992 397.916443,356.987000 392.654114,357.172821 
	C388.246765,357.328430 386.217651,359.284271 386.213898,363.564606 
	C386.206512,372.047821 386.202667,380.531067 386.217438,389.014252 
	C386.223724,392.615173 386.862946,395.643066 391.437531,395.997467 
	C395.942535,396.346466 399.005981,395.001831 399.457092,390.099854 
	C399.686890,387.602905 399.961670,385.642609 403.306366,385.560730 
	C408.332733,385.437592 409.612854,386.563171 409.086853,391.589203 
	C408.151398,400.527863 400.945923,406.678070 391.966064,406.202637 
	C382.820923,405.718445 376.832092,399.637817 376.702148,390.434845 
	C376.580048,381.786835 376.640411,373.135529 376.687988,364.486053 
	C376.757263,351.886169 384.878845,345.350952 397.731689,347.910095 
z"/>
<path fill="#000000" opacity="1.000000" stroke="none" 
	d="
M202.535583,170.413177 
	C201.000992,174.419739 198.388672,176.405243 194.426437,176.235840 
	C191.564911,176.113480 189.338669,174.711411 188.103470,172.097870 
	C186.722565,169.176025 186.783875,166.221405 188.997208,163.727142 
	C191.268250,161.167892 194.206879,160.087799 197.521561,161.412659 
	C201.345276,162.940994 203.158142,165.853775 202.535583,170.413177 
z"/>
<path fill="#000000" opacity="1.000000" stroke="none" 
	d="
M301.779724,165.131393 
	C304.231720,161.661606 307.151489,160.097778 311.002655,161.436752 
	C314.305939,162.585220 316.178253,165.029770 316.228882,168.564941 
	C316.276611,171.894485 314.515381,174.208893 311.548981,175.581024 
	C308.699615,176.899048 305.952881,176.452652 303.643402,174.457291 
	C300.843567,172.038361 300.028870,168.990768 301.779724,165.131393 
z"/>
</svg>