<?xml version="1.0" encoding="UTF-8"?>
<svg enable-background="new 0 0 496 496" version="1.1" viewBox="0 0 496 496" xml:space="preserve" xmlns="http://www.w3.org/2000/svg">
<path d="m495.79 248a247.79 247.79 0 0 1-247.79 247.79 247.79 247.79 0 0 1-247.79-247.79 247.79 247.79 0 0 1 247.79-247.79 247.79 247.79 0 0 1 247.79 247.79z" fill="#fff" stroke-width="1.1963"/>








<g transform="matrix(1.5997 0 0 1.5997 -153.57 -71.598)"><path d="m331.9 193.74c-2.5544-7.9923-2.1607-15.848-2.153-23.674 9e-3 -8.6651 0.17389-17.336-0.0901-25.994-0.33224-10.896-5.4923-15.754-16.268-15.775-13.999-0.0267-27.997-0.0343-41.996 4e-3 -9.3232 0.0258-13.052 3.7019-13.06 13.032-0.0418 47.495-0.0307 94.99-0.049 142.48-4e-3 11.408-4.9832 16.416-16.561 16.307-19.992-0.18887-39.984-0.45966-59.973-0.85245-14.061-0.2763-22.379-7.2118-25.253-20.935-1.2324-5.8861-1.3007-11.911-1.1012-17.9 0.32178-9.6621 0.75958-19.314-0.6674-28.935-1.4483-9.7644-5.3474-14.053-14.844-16.382-2.5821-0.63348-5.1839-1.3209-7.4085-2.8913-1.8922-1.3358-2.9811-3.091-2.7358-5.5191 0.25685-2.5436 1.9484-3.7325 4.1327-4.4524 0.78749-0.25949 1.6094-0.41687 2.4189-0.60687 13.622-3.1974 18.13-9.0582 18.417-23.182 0.26347-12.974-0.94084-25.977 0.93738-38.923 2.2885-15.774 10.898-23.435 26.919-23.845 4.8202-0.12325 9.6346 0.23475 14.467-0.3766 9.4931-1.2009 16.223-7.2622 23.354-12.705 1.5505-1.1834 2.8313-2.8801 5.4133-3.1634 3.1142 4.1228 2.7473 8.4786 0.43457 12.841-2.2708 4.2835-5.976 7.0248-10.276 9.1366-9.1646 4.5014-19.094 5.6278-29.024 6.7558-8.569 0.97337-12.786 5.1663-13.84 13.665-1.1959 9.6374-0.58473 19.309-0.70872 28.965-0.073 5.683-0.52002 11.303-1.641 16.872-1.6937 8.4136-6.0886 14.653-14.281 17.902-0.85072 0.33742-2.0231 0.49103-2.2053 1.7683 0.20455 0.25545 0.36477 0.67215 0.60724 0.72732 13.532 3.079 16.998 13.213 17.29 25.21 0.27991 11.492 0.0712 22.996 0.0308 34.494-0.0124 3.5304 0.38568 6.9913 1.4957 10.336 1.8931 5.7052 5.9152 8.7019 11.942 8.7265 14.832 0.0607 29.664 0.0923 44.495 6e-3 7.258-0.0424 11.782-4.3839 12.377-11.649 0.18996-2.3186 0.0764-4.6633 0.0747-6.9961-0.0316-43.328-0.0643-86.656-0.10727-129.98-3e-3 -3.4909-0.34271-7.0023-0.0678-10.468 0.4567-5.7568 2.8863-8.3284 8.4855-9.5144 1.4542-0.30804 2.9725-0.40423 4.4643-0.43044 19.824-0.34825 39.648-0.68181 59.473-0.97545 2.8282-0.0419 5.6802-0.0432 8.4865 0.25856 15.324 1.6478 21.336 7.8475 22.954 23.256 0.82049 7.815 0.93689 15.598 0.26751 23.441-0.66812 7.8276-0.0414 15.652 1.6642 23.324 1.4256 6.4118 5.5438 10.448 11.864 12.28 2.8761 0.83339 5.7766 1.6419 8.5504 2.751 2.5229 1.0088 3.9554 2.9849 3.7041 5.8864-0.258 2.9791-2.2551 4.2709-4.832 5.0007-0.31909 0.0904-0.65436 0.12274-0.98117 0.18668-14.002 2.7388-18.966 8.6062-19.128 22.896-0.1171 10.331 7e-3 20.665-0.11801 30.996-0.036 2.9798-0.39612 5.9814-0.88968 8.9258-3.4105 20.345-17.899 25.522-35.934 22.153-1.2852-0.24011-2.5566-0.80441-3.7106-1.442-2.0565-1.1363-3.2603-2.8898-2.8254-5.3466 0.41321-2.3344 2.2214-3.2128 4.2967-3.5596 1.6382-0.27378 3.3211-0.27015 4.9681-0.50315 11.482-1.6243 16.087-6.5533 16.426-18.172 0.25718-8.8254 0.16059-17.664 0.0701-26.495-0.0465-4.5338 0.65598-8.9655 1.3478-13.401 1.6205-10.392 6.8658-17.914 18.945-21.456-8.8013-2.4917-15.315-5.8188-18.045-14.081z"/><path d="m202.54 170.41c-1.5346 4.0066-4.1469 5.9921-8.1091 5.8227-2.8615-0.12236-5.0878-1.5244-6.323-4.138-1.3809-2.9218-1.3196-5.8765 0.89374-8.3707 2.271-2.5592 5.2097-3.6393 8.5244-2.3145 3.8237 1.5283 5.6366 4.4411 5.014 9.0005z"/><path d="m301.78 165.13c2.452-3.4698 5.3718-5.0336 9.2229-3.6946 3.3033 1.1485 5.1756 3.593 5.2262 7.1282 0.0477 3.3295-1.7135 5.644-4.6799 7.0161-2.8494 1.318-5.5961 0.87163-7.9056-1.1237-2.7998-2.4189-3.6145-5.4665-1.8637-9.3259z"/></g>
</svg>
