<?xml version="1.0" encoding="UTF-8" standalone="no"?>
<svg
   version="1.1"
   id="Layer_1"
   x="0px"
   y="0px"
   width="245803.75"
   viewBox="0 0 245803.75 245803.75"
   enable-background="new 0 0 496 496"
   xml:space="preserve"
   height="245803.75"
   xmlns="http://www.w3.org/2000/svg"
   xmlns:svg="http://www.w3.org/2000/svg"><defs
   id="defs10" />
<path
   id="path11"
   style="fill:#ffffff;stroke-width:1.19627"
   d="M 389.65493,141.8689 A 247.78603,247.78603 0 0 1 141.8689,389.65493 247.78603,247.78603 0 0 1 -105.91713,141.8689 247.78603,247.78603 0 0 1 141.8689,-105.91713 247.78603,247.78603 0 0 1 389.65493,141.8689 Z" />








<g
   id="g11"
   transform="matrix(1.5996924,0,0,1.5996924,-259.69627,-177.72924)"><path
     fill="#000000"
     opacity="1"
     stroke="none"
     d="m 331.90411,193.7363 c -2.55441,-7.99228 -2.16073,-15.84813 -2.15304,-23.6744 0.009,-8.66508 0.17389,-17.33624 -0.0901,-25.99375 -0.33224,-10.8955 -5.49228,-15.75432 -16.26849,-15.77489 -13.99851,-0.0267 -27.99717,-0.0343 -41.99558,0.004 -9.32315,0.0258 -13.0517,3.70189 -13.05991,13.03194 -0.0418,47.49496 -0.0307,94.98997 -0.049,142.48497 -0.004,11.4085 -4.9832,16.41622 -16.5612,16.30685 -19.99196,-0.18887 -39.98401,-0.45966 -59.97293,-0.85245 -14.06076,-0.2763 -22.37926,-7.21185 -25.25252,-20.93524 -1.23239,-5.88611 -1.30066,-11.91104 -1.10118,-17.90048 0.32178,-9.66213 0.75958,-19.31387 -0.6674,-28.93454 -1.44832,-9.76439 -5.34745,-14.05255 -14.84381,-16.3824 -2.58213,-0.63348 -5.18392,-1.32092 -7.40853,-2.89131 -1.89224,-1.33577 -2.98106,-3.09095 -2.73585,-5.51911 0.25685,-2.54359 1.94838,-3.73251 4.13273,-4.45236 0.78749,-0.25949 1.60942,-0.41687 2.41892,-0.60687 13.6225,-3.19739 18.13031,-9.05823 18.41716,-23.18181 0.26347,-12.97371 -0.94084,-25.97684 0.93738,-38.92278 2.28854,-15.77397 10.89756,-23.43546 26.919,-23.8451 4.82015,-0.12325 9.63455,0.23475 14.46703,-0.3766 9.49306,-1.20094 16.22261,-7.26218 23.35376,-12.70483 1.55053,-1.18341 2.8313,-2.880106 5.41328,-3.163416 3.1142,4.122826 2.74733,8.478646 0.43457,12.841396 -2.27075,4.28348 -5.97598,7.02477 -10.27554,9.13659 -9.16461,4.5014 -19.09389,5.62782 -29.02362,6.75575 -8.56902,0.97337 -12.78562,5.16626 -13.8402,13.66499 -1.19587,9.63738 -0.58473,19.30895 -0.70872,28.96471 -0.073,5.68301 -0.52002,11.30311 -1.64099,16.87152 -1.69374,8.4136 -6.08861,14.65288 -14.28078,17.9021 -0.85072,0.33742 -2.02312,0.49103 -2.20528,1.76828 0.20455,0.25545 0.36477,0.67215 0.60724,0.72732 13.53177,3.07897 16.99813,13.21261 17.29036,25.20987 0.27991,11.49152 0.0712,22.99553 0.0308,34.49391 -0.0124,3.5304 0.38568,6.99128 1.49573,10.33649 1.89314,5.70517 5.91525,8.70188 11.94229,8.72653 14.83154,0.0607 29.66383,0.0923 44.49506,0.006 7.25804,-0.0424 11.78163,-4.38391 12.37684,-11.64877 0.18996,-2.31858 0.0764,-4.6633 0.0747,-6.99607 -0.0316,-43.3282 -0.0643,-86.65638 -0.10727,-129.98459 -0.003,-3.49087 -0.34271,-7.00233 -0.0678,-10.46787 0.4567,-5.75684 2.88629,-8.32837 8.48553,-9.51438 1.45423,-0.30804 2.97251,-0.40423 4.46431,-0.43044 19.82401,-0.34825 39.64832,-0.68181 59.47318,-0.97545 2.82822,-0.0419 5.68021,-0.0432 8.48654,0.25856 15.32422,1.64783 21.33609,7.84751 22.95377,23.25606 0.82049,7.81504 0.93689,15.59786 0.26751,23.4406 -0.66812,7.82764 -0.0414,15.65233 1.66416,23.32367 1.42557,6.41184 5.54379,10.44838 11.86358,12.27959 2.87607,0.83339 5.77659,1.64194 8.55036,2.75105 2.52289,1.00876 3.95541,2.98494 3.7041,5.88635 -0.258,2.97907 -2.25507,4.27091 -4.832,5.00066 -0.31909,0.0904 -0.65436,0.12274 -0.98117,0.18668 -14.00195,2.73881 -18.96588,8.60624 -19.12787,22.89604 -0.1171,10.33105 0.007,20.66489 -0.11801,30.99576 -0.036,2.97976 -0.39612,5.98141 -0.88968,8.92575 -3.41046,20.34515 -17.89929,25.52209 -35.93408,22.15307 -1.28522,-0.24011 -2.55658,-0.80441 -3.7106,-1.44201 -2.05646,-1.13627 -3.26026,-2.8898 -2.82538,-5.34659 0.41321,-2.33441 2.22137,-3.21283 4.29669,-3.55963 1.63821,-0.27378 3.32111,-0.27015 4.96814,-0.50315 11.48236,-1.62429 16.08743,-6.55331 16.42599,-18.17181 0.25718,-8.82535 0.16059,-17.66405 0.0701,-26.49526 -0.0465,-4.53375 0.65598,-8.96546 1.34778,-13.40142 1.62051,-10.39177 6.86578,-17.91401 18.94489,-21.45642 -8.80127,-2.49172 -15.31525,-5.81881 -18.04496,-14.08098 z"
     id="path1" /><path
     fill="#000000"
     opacity="1"
     stroke="none"
     d="m 202.53558,170.41318 c -1.53459,4.00656 -4.14691,5.99206 -8.10914,5.82266 -2.86153,-0.12236 -5.08777,-1.52443 -6.32297,-4.13797 -1.38091,-2.92185 -1.3196,-5.87647 0.89374,-8.37073 2.27104,-2.55925 5.20967,-3.63934 8.52435,-2.31448 3.82372,1.52833 5.63658,4.44112 5.01402,9.00052 z"
     id="path9" /><path
     fill="#000000"
     opacity="1"
     stroke="none"
     d="m 301.77972,165.13139 c 2.452,-3.46978 5.37177,-5.03361 9.22293,-3.69464 3.30329,1.14847 5.1756,3.59302 5.22623,7.12819 0.0477,3.32954 -1.7135,5.64395 -4.6799,7.01608 -2.84937,1.31803 -5.5961,0.87163 -7.90558,-1.12373 -2.79983,-2.41893 -3.61453,-5.46652 -1.86368,-9.3259 z"
     id="path10" /></g>
</svg>
